<svg xmlns="http://www.w3.org/2000/svg" viewBox="0 0 1080 1080" role="img" aria-labelledby="title desc">
  <title id="title">Safhati Instagram avatar icon</title>
  <desc id="desc">A simplified square social media avatar for Safhati, optimized for circular profile crops.</desc>
  <defs>
    <linearGradient id="bg" x1="120" y1="80" x2="980" y2="1030" gradientUnits="userSpaceOnUse">
      <stop offset="0" stop-color="#fff6e8"/>
      <stop offset="0.48" stop-color="#ffd7c4"/>
      <stop offset="1" stop-color="#f17a5b"/>
    </linearGradient>
    <filter id="shadow" x="-20%" y="-20%" width="140%" height="140%">
      <feDropShadow dx="0" dy="30" stdDeviation="34" flood-color="#102b40" flood-opacity="0.24"/>
    </filter>
  </defs>
  <rect width="1080" height="1080" rx="250" fill="url(#bg)"/>
  <circle cx="860" cy="205" r="142" fill="#ffcc70" opacity=".95"/>
  <circle cx="205" cy="875" r="165" fill="#b9abff" opacity=".62"/>
  <path d="M86 306c139-107 302-125 468-67 134 47 264 30 393-64v778H86Z" fill="#102b40" opacity=".08"/>
  <g filter="url(#shadow)">
    <rect x="225" y="205" width="630" height="630" rx="145" fill="#102b40"/>
    <path d="M395 316h218l104 104v278c0 45-36 81-81 81H395c-45 0-81-36-81-81V397c0-45 36-81 81-81Z" fill="#fff6e8"/>
    <path d="M613 316v112h104" fill="#ffcc70"/>
    <path d="M422 505h202M422 590h155M422 675h181" stroke="#102b40" stroke-width="38" stroke-linecap="round"/>
    <path d="m776 355 20 46 46 20-46 20-20 46-20-46-46-20 46-20Z" fill="#f17a5b"/>
  </g>
</svg>
